<mxfile host="www.draw.io" modified="2019-12-11T10:44:07.331Z" agent="Mozilla/5.0 (Windows NT 6.3; Win64; x64) AppleWebKit/537.36 (KHTML, like Gecko) Chrome/78.0.3904.108 Safari/537.36" etag="szbqgZV2rCQd4LZ9DfOZ" version="12.3.9" type="github" pages="1">
  <diagram id="9pqVZNMnvHMWW9GRLAtv" name="Login Flow chart with two factor verification">
    <mxGraphModel dx="868" dy="520" grid="1" gridSize="10" guides="1" tooltips="1" connect="1" arrows="1" fold="1" page="1" pageScale="1" pageWidth="850" pageHeight="1100" math="0" shadow="0">
      <root>
        <mxCell id="0"/>
        <mxCell id="1" parent="0"/>
        <mxCell id="q_gilz-qWR15Iqyg2p3y-1" value="" style="edgeStyle=orthogonalEdgeStyle;rounded=0;orthogonalLoop=1;jettySize=auto;html=1;" edge="1" parent="1" source="q_gilz-qWR15Iqyg2p3y-2">
          <mxGeometry relative="1" as="geometry">
            <mxPoint x="280" y="180" as="targetPoint"/>
          </mxGeometry>
        </mxCell>
        <mxCell id="q_gilz-qWR15Iqyg2p3y-2" value="Login" style="strokeWidth=2;html=1;shape=mxgraph.flowchart.start_1;whiteSpace=wrap;" vertex="1" parent="1">
          <mxGeometry x="230" y="40" width="100" height="60" as="geometry"/>
        </mxCell>
        <mxCell id="q_gilz-qWR15Iqyg2p3y-3" value="" style="edgeStyle=orthogonalEdgeStyle;rounded=0;orthogonalLoop=1;jettySize=auto;html=1;" edge="1" parent="1" source="q_gilz-qWR15Iqyg2p3y-4">
          <mxGeometry relative="1" as="geometry">
            <mxPoint x="280" y="320" as="targetPoint"/>
          </mxGeometry>
        </mxCell>
        <mxCell id="q_gilz-qWR15Iqyg2p3y-4" value="Get Email Id and Password from user" style="shape=parallelogram;html=1;strokeWidth=2;perimeter=parallelogramPerimeter;whiteSpace=wrap;rounded=1;arcSize=12;size=0.23;" vertex="1" parent="1">
          <mxGeometry x="135" y="180" width="290" height="60" as="geometry"/>
        </mxCell>
        <mxCell id="q_gilz-qWR15Iqyg2p3y-5" value="" style="edgeStyle=orthogonalEdgeStyle;rounded=0;orthogonalLoop=1;jettySize=auto;html=1;entryX=0.5;entryY=0;entryDx=0;entryDy=0;" edge="1" parent="1" source="q_gilz-qWR15Iqyg2p3y-7" target="q_gilz-qWR15Iqyg2p3y-9">
          <mxGeometry relative="1" as="geometry">
            <mxPoint x="410" y="420" as="targetPoint"/>
          </mxGeometry>
        </mxCell>
        <mxCell id="q_gilz-qWR15Iqyg2p3y-6" value="" style="edgeStyle=orthogonalEdgeStyle;rounded=0;orthogonalLoop=1;jettySize=auto;html=1;" edge="1" parent="1" source="q_gilz-qWR15Iqyg2p3y-7">
          <mxGeometry relative="1" as="geometry">
            <mxPoint x="280" y="500" as="targetPoint"/>
          </mxGeometry>
        </mxCell>
        <mxCell id="q_gilz-qWR15Iqyg2p3y-7" value="&lt;b&gt;Checking&lt;br&gt;&amp;nbsp;user == true&lt;/b&gt;" style="strokeWidth=2;html=1;shape=mxgraph.flowchart.decision;whiteSpace=wrap;" vertex="1" parent="1">
          <mxGeometry x="230" y="320" width="100" height="100" as="geometry"/>
        </mxCell>
        <mxCell id="q_gilz-qWR15Iqyg2p3y-8" value="" style="edgeStyle=orthogonalEdgeStyle;rounded=0;orthogonalLoop=1;jettySize=auto;html=1;" edge="1" parent="1" source="q_gilz-qWR15Iqyg2p3y-9" target="q_gilz-qWR15Iqyg2p3y-11">
          <mxGeometry relative="1" as="geometry"/>
        </mxCell>
        <mxCell id="q_gilz-qWR15Iqyg2p3y-9" value="&lt;font color=&quot;#990000&quot;&gt;Show message(Email id or Password Does not Match)&lt;/font&gt;" style="rounded=1;whiteSpace=wrap;html=1;absoluteArcSize=1;arcSize=14;strokeWidth=2;fontStyle=1" vertex="1" parent="1">
          <mxGeometry x="420" y="410" width="190" height="50" as="geometry"/>
        </mxCell>
        <mxCell id="q_gilz-qWR15Iqyg2p3y-10" value="" style="edgeStyle=orthogonalEdgeStyle;rounded=0;orthogonalLoop=1;jettySize=auto;html=1;entryX=0.5;entryY=0;entryDx=0;entryDy=0;" edge="1" parent="1" source="q_gilz-qWR15Iqyg2p3y-11" target="q_gilz-qWR15Iqyg2p3y-39">
          <mxGeometry relative="1" as="geometry">
            <mxPoint x="690" y="560" as="targetPoint"/>
          </mxGeometry>
        </mxCell>
        <mxCell id="q_gilz-qWR15Iqyg2p3y-11" value="Attempt = Attempt + 1" style="rounded=1;whiteSpace=wrap;html=1;absoluteArcSize=1;arcSize=14;strokeWidth=2;fontStyle=1" vertex="1" parent="1">
          <mxGeometry x="420" y="540" width="190" height="40" as="geometry"/>
        </mxCell>
        <mxCell id="q_gilz-qWR15Iqyg2p3y-12" value="NO" style="text;html=1;align=center;verticalAlign=middle;resizable=0;points=[];;autosize=1;fontStyle=1" vertex="1" parent="1">
          <mxGeometry x="365" y="350" width="30" height="20" as="geometry"/>
        </mxCell>
        <mxCell id="q_gilz-qWR15Iqyg2p3y-13" value="&lt;b&gt;Yes&lt;/b&gt;" style="text;html=1;align=center;verticalAlign=middle;resizable=0;points=[];;autosize=1;" vertex="1" parent="1">
          <mxGeometry x="280" y="440" width="40" height="20" as="geometry"/>
        </mxCell>
        <mxCell id="q_gilz-qWR15Iqyg2p3y-14" value="" style="edgeStyle=orthogonalEdgeStyle;rounded=0;orthogonalLoop=1;jettySize=auto;html=1;" edge="1" parent="1" source="q_gilz-qWR15Iqyg2p3y-15">
          <mxGeometry relative="1" as="geometry">
            <mxPoint x="280" y="620" as="targetPoint"/>
          </mxGeometry>
        </mxCell>
        <mxCell id="q_gilz-qWR15Iqyg2p3y-15" value="Send Authentication code to email ID" style="rounded=1;whiteSpace=wrap;html=1;absoluteArcSize=1;arcSize=14;strokeWidth=2;" vertex="1" parent="1">
          <mxGeometry x="190" y="500" width="180" height="40" as="geometry"/>
        </mxCell>
        <mxCell id="q_gilz-qWR15Iqyg2p3y-16" value="" style="edgeStyle=orthogonalEdgeStyle;rounded=0;orthogonalLoop=1;jettySize=auto;html=1;entryX=0.47;entryY=0.025;entryDx=0;entryDy=0;entryPerimeter=0;" edge="1" parent="1" source="q_gilz-qWR15Iqyg2p3y-18" target="q_gilz-qWR15Iqyg2p3y-21">
          <mxGeometry relative="1" as="geometry">
            <mxPoint x="410" y="670" as="targetPoint"/>
          </mxGeometry>
        </mxCell>
        <mxCell id="q_gilz-qWR15Iqyg2p3y-17" value="" style="edgeStyle=orthogonalEdgeStyle;rounded=0;orthogonalLoop=1;jettySize=auto;html=1;" edge="1" parent="1" source="q_gilz-qWR15Iqyg2p3y-18">
          <mxGeometry relative="1" as="geometry">
            <mxPoint x="280" y="800" as="targetPoint"/>
          </mxGeometry>
        </mxCell>
        <mxCell id="q_gilz-qWR15Iqyg2p3y-18" value="Checking Mail &lt;br&gt;send == true" style="strokeWidth=2;html=1;shape=mxgraph.flowchart.decision;whiteSpace=wrap;" vertex="1" parent="1">
          <mxGeometry x="230" y="620" width="100" height="100" as="geometry"/>
        </mxCell>
        <mxCell id="q_gilz-qWR15Iqyg2p3y-19" value="No" style="text;html=1;align=center;verticalAlign=middle;resizable=0;points=[];;autosize=1;fontStyle=1" vertex="1" parent="1">
          <mxGeometry x="350" y="650" width="30" height="20" as="geometry"/>
        </mxCell>
        <mxCell id="q_gilz-qWR15Iqyg2p3y-20" value="" style="edgeStyle=orthogonalEdgeStyle;rounded=0;orthogonalLoop=1;jettySize=auto;html=1;" edge="1" parent="1" source="q_gilz-qWR15Iqyg2p3y-21">
          <mxGeometry relative="1" as="geometry">
            <mxPoint x="525" y="820" as="targetPoint"/>
          </mxGeometry>
        </mxCell>
        <mxCell id="q_gilz-qWR15Iqyg2p3y-21" value="&lt;font color=&quot;#990000&quot;&gt;Resend mail and update in database authentication code&lt;/font&gt;" style="rounded=1;whiteSpace=wrap;html=1;absoluteArcSize=1;arcSize=14;strokeWidth=2;fontStyle=1" vertex="1" parent="1">
          <mxGeometry x="425" y="700" width="200" height="40" as="geometry"/>
        </mxCell>
        <mxCell id="q_gilz-qWR15Iqyg2p3y-22" value="&lt;b&gt;B&lt;/b&gt;" style="strokeWidth=2;html=1;shape=mxgraph.flowchart.start_2;whiteSpace=wrap;" vertex="1" parent="1">
          <mxGeometry x="502.5" y="820" width="45" height="40" as="geometry"/>
        </mxCell>
        <mxCell id="q_gilz-qWR15Iqyg2p3y-23" value="Yes" style="text;html=1;align=center;verticalAlign=middle;resizable=0;points=[];;autosize=1;fontStyle=1" vertex="1" parent="1">
          <mxGeometry x="280" y="760" width="40" height="20" as="geometry"/>
        </mxCell>
        <mxCell id="q_gilz-qWR15Iqyg2p3y-24" value="" style="edgeStyle=orthogonalEdgeStyle;rounded=0;orthogonalLoop=1;jettySize=auto;html=1;" edge="1" parent="1" source="q_gilz-qWR15Iqyg2p3y-25">
          <mxGeometry relative="1" as="geometry">
            <mxPoint x="280" y="920" as="targetPoint"/>
          </mxGeometry>
        </mxCell>
        <mxCell id="q_gilz-qWR15Iqyg2p3y-25" value="Insert data into table(tracking table) for tracking record and update verification code to existing email id into table (login table)" style="rounded=1;whiteSpace=wrap;html=1;absoluteArcSize=1;arcSize=14;strokeWidth=2;" vertex="1" parent="1">
          <mxGeometry x="150" y="800" width="260" height="60" as="geometry"/>
        </mxCell>
        <mxCell id="q_gilz-qWR15Iqyg2p3y-26" value="Redirect to Verification page with session ( email id )" style="rounded=1;whiteSpace=wrap;html=1;absoluteArcSize=1;arcSize=14;strokeWidth=2;" vertex="1" parent="1">
          <mxGeometry x="181" y="1150" width="200" height="40" as="geometry"/>
        </mxCell>
        <mxCell id="q_gilz-qWR15Iqyg2p3y-27" value="" style="edgeStyle=orthogonalEdgeStyle;rounded=0;orthogonalLoop=1;jettySize=auto;html=1;" edge="1" parent="1" source="q_gilz-qWR15Iqyg2p3y-29">
          <mxGeometry relative="1" as="geometry">
            <mxPoint x="281" y="1150" as="targetPoint"/>
          </mxGeometry>
        </mxCell>
        <mxCell id="q_gilz-qWR15Iqyg2p3y-28" value="" style="edgeStyle=orthogonalEdgeStyle;rounded=0;orthogonalLoop=1;jettySize=auto;html=1;" edge="1" parent="1" source="q_gilz-qWR15Iqyg2p3y-29">
          <mxGeometry relative="1" as="geometry">
            <mxPoint x="446" y="995" as="targetPoint"/>
          </mxGeometry>
        </mxCell>
        <mxCell id="q_gilz-qWR15Iqyg2p3y-29" value="&lt;div&gt;&lt;span&gt;Condition&lt;/span&gt;&lt;/div&gt;&lt;div&gt;&lt;span&gt;record insert and update verfication code == true&lt;/span&gt;&lt;/div&gt;" style="strokeWidth=2;html=1;shape=mxgraph.flowchart.decision;whiteSpace=wrap;align=center;" vertex="1" parent="1">
          <mxGeometry x="196" y="920" width="170" height="150" as="geometry"/>
        </mxCell>
        <mxCell id="q_gilz-qWR15Iqyg2p3y-30" value="Yes" style="text;html=1;align=center;verticalAlign=middle;resizable=0;points=[];;autosize=1;fontStyle=1" vertex="1" parent="1">
          <mxGeometry x="281" y="1100" width="40" height="20" as="geometry"/>
        </mxCell>
        <mxCell id="q_gilz-qWR15Iqyg2p3y-31" value="&lt;b&gt;No&lt;/b&gt;" style="text;html=1;align=center;verticalAlign=middle;resizable=0;points=[];;autosize=1;" vertex="1" parent="1">
          <mxGeometry x="392" y="977" width="30" height="20" as="geometry"/>
        </mxCell>
        <mxCell id="q_gilz-qWR15Iqyg2p3y-32" value="&lt;b&gt;C&lt;/b&gt;" style="strokeWidth=2;html=1;shape=mxgraph.flowchart.start_2;whiteSpace=wrap;" vertex="1" parent="1">
          <mxGeometry x="448" y="975" width="45" height="40" as="geometry"/>
        </mxCell>
        <mxCell id="q_gilz-qWR15Iqyg2p3y-33" value="&lt;b&gt;C&lt;/b&gt;" style="strokeWidth=2;html=1;shape=mxgraph.flowchart.start_2;whiteSpace=wrap;" vertex="1" parent="1">
          <mxGeometry x="40" y="760" width="45" height="40" as="geometry"/>
        </mxCell>
        <mxCell id="q_gilz-qWR15Iqyg2p3y-34" value="" style="endArrow=classic;html=1;entryX=-0.1;entryY=0.95;entryDx=0;entryDy=0;entryPerimeter=0;" edge="1" parent="1">
          <mxGeometry width="50" height="50" relative="1" as="geometry">
            <mxPoint x="84" y="779" as="sourcePoint"/>
            <mxPoint x="280" y="779" as="targetPoint"/>
          </mxGeometry>
        </mxCell>
        <mxCell id="q_gilz-qWR15Iqyg2p3y-35" value="&lt;b&gt;B&lt;/b&gt;" style="strokeWidth=2;html=1;shape=mxgraph.flowchart.start_2;whiteSpace=wrap;" vertex="1" parent="1">
          <mxGeometry x="40" y="460" width="45" height="40" as="geometry"/>
        </mxCell>
        <mxCell id="q_gilz-qWR15Iqyg2p3y-36" value="" style="endArrow=classic;html=1;entryX=-0.1;entryY=0.95;entryDx=0;entryDy=0;entryPerimeter=0;" edge="1" parent="1">
          <mxGeometry width="50" height="50" relative="1" as="geometry">
            <mxPoint x="84" y="479" as="sourcePoint"/>
            <mxPoint x="280" y="479" as="targetPoint"/>
          </mxGeometry>
        </mxCell>
        <mxCell id="q_gilz-qWR15Iqyg2p3y-37" value="" style="edgeStyle=orthogonalEdgeStyle;rounded=0;orthogonalLoop=1;jettySize=auto;html=1;entryX=0;entryY=0.5;entryDx=0;entryDy=0;entryPerimeter=0;" edge="1" parent="1" source="q_gilz-qWR15Iqyg2p3y-39" target="q_gilz-qWR15Iqyg2p3y-46">
          <mxGeometry relative="1" as="geometry">
            <mxPoint x="985" y="650" as="targetPoint"/>
          </mxGeometry>
        </mxCell>
        <mxCell id="q_gilz-qWR15Iqyg2p3y-38" value="" style="edgeStyle=orthogonalEdgeStyle;rounded=0;orthogonalLoop=1;jettySize=auto;html=1;" edge="1" parent="1" source="q_gilz-qWR15Iqyg2p3y-39">
          <mxGeometry relative="1" as="geometry">
            <mxPoint x="850" y="785" as="targetPoint"/>
          </mxGeometry>
        </mxCell>
        <mxCell id="q_gilz-qWR15Iqyg2p3y-39" value="Attempt&lt;br&gt;if(attempt&amp;gt;50)" style="rhombus;whiteSpace=wrap;html=1;fontStyle=1" vertex="1" parent="1">
          <mxGeometry x="795" y="595" width="110" height="110" as="geometry"/>
        </mxCell>
        <mxCell id="q_gilz-qWR15Iqyg2p3y-40" value="No" style="text;html=1;align=center;verticalAlign=middle;resizable=0;points=[];;autosize=1;fontStyle=1" vertex="1" parent="1">
          <mxGeometry x="920" y="630" width="30" height="20" as="geometry"/>
        </mxCell>
        <mxCell id="q_gilz-qWR15Iqyg2p3y-41" value="&lt;b&gt;Yes&lt;/b&gt;" style="text;html=1;align=center;verticalAlign=middle;resizable=0;points=[];;autosize=1;" vertex="1" parent="1">
          <mxGeometry x="810" y="730" width="40" height="20" as="geometry"/>
        </mxCell>
        <mxCell id="q_gilz-qWR15Iqyg2p3y-42" value="" style="edgeStyle=orthogonalEdgeStyle;rounded=0;orthogonalLoop=1;jettySize=auto;html=1;" edge="1" parent="1" source="q_gilz-qWR15Iqyg2p3y-43">
          <mxGeometry relative="1" as="geometry">
            <mxPoint x="850" y="908" as="targetPoint"/>
          </mxGeometry>
        </mxCell>
        <mxCell id="q_gilz-qWR15Iqyg2p3y-43" value="&lt;font color=&quot;#990000&quot;&gt;Block Account for 1 hour before 1 hour it is show error message Your account has been blocked&lt;/font&gt;" style="rounded=1;whiteSpace=wrap;html=1;absoluteArcSize=1;arcSize=14;strokeWidth=2;fontStyle=1" vertex="1" parent="1">
          <mxGeometry x="744.5" y="787" width="210" height="52" as="geometry"/>
        </mxCell>
        <mxCell id="q_gilz-qWR15Iqyg2p3y-44" value="&lt;b&gt;A&lt;/b&gt;" style="strokeWidth=2;html=1;shape=mxgraph.flowchart.start_2;whiteSpace=wrap;" vertex="1" parent="1">
          <mxGeometry x="41" y="130" width="45" height="40" as="geometry"/>
        </mxCell>
        <mxCell id="q_gilz-qWR15Iqyg2p3y-45" value="" style="endArrow=classic;html=1;entryX=-0.1;entryY=0.95;entryDx=0;entryDy=0;entryPerimeter=0;" edge="1" parent="1">
          <mxGeometry width="50" height="50" relative="1" as="geometry">
            <mxPoint x="85" y="149" as="sourcePoint"/>
            <mxPoint x="281" y="149" as="targetPoint"/>
          </mxGeometry>
        </mxCell>
        <mxCell id="q_gilz-qWR15Iqyg2p3y-46" value="&lt;b&gt;A&lt;/b&gt;" style="strokeWidth=2;html=1;shape=mxgraph.flowchart.start_2;whiteSpace=wrap;" vertex="1" parent="1">
          <mxGeometry x="1000" y="630" width="45" height="40" as="geometry"/>
        </mxCell>
        <mxCell id="q_gilz-qWR15Iqyg2p3y-47" value="&lt;b&gt;A&lt;/b&gt;" style="strokeWidth=2;html=1;shape=mxgraph.flowchart.start_2;whiteSpace=wrap;" vertex="1" parent="1">
          <mxGeometry x="827" y="910" width="45" height="40" as="geometry"/>
        </mxCell>
      </root>
    </mxGraphModel>
  </diagram>
</mxfile>
